<svg width="43" height="43" viewBox="0 0 43 43" fill="none" xmlns="http://www.w3.org/2000/svg">
<path id="Vector" d="M21.5 43C15.7978 43 10.3292 40.7348 6.2972 36.7028C2.26517 32.6708 0 27.2022 0 21.5C0 15.7978 2.26517 10.3292 6.2972 6.2972C10.3292 2.26517 15.7978 0 21.5 0C27.2022 0 32.6708 2.26517 36.7028 6.2972C40.7348 10.3292 43 15.7978 43 21.5C43 27.2022 40.7348 32.6708 36.7028 36.7028C32.6708 40.7348 27.2022 43 21.5 43ZM23.65 32.25H25.8C27.5106 32.25 29.1512 31.5704 30.3608 30.3608C31.5704 29.1512 32.25 27.5106 32.25 25.8C32.25 24.0894 31.5704 22.4488 30.3608 21.2392C29.1512 20.0296 27.5106 19.35 25.8 19.35H17.1785C16.6083 19.35 16.0614 19.1235 15.6582 18.7203C15.255 18.3171 15.0285 17.7702 15.0285 17.2C15.0285 16.6298 15.255 16.0829 15.6582 15.6797C16.0614 15.2765 16.6083 15.05 17.1785 15.05H30.1V10.75H23.65V6.45H19.35V10.75H17.2C15.4894 10.75 13.8488 11.4296 12.6392 12.6392C11.4296 13.8488 10.75 15.4894 10.75 17.2C10.75 18.9106 11.4296 20.5512 12.6392 21.7608C13.8488 22.9704 15.4894 23.65 17.2 23.65H25.8C26.3702 23.65 26.9171 23.8765 27.3203 24.2797C27.7235 24.6829 27.95 25.2298 27.95 25.8C27.95 26.3702 27.7235 26.9171 27.3203 27.3203C26.9171 27.7235 26.3702 27.95 25.8 27.95H12.9V32.25H19.35V36.55H23.65V32.25Z" fill="#27BF75"/>
</svg>
